<svg width="1814" height="434" xmlns="http://www.w3.org/2000/svg" preserveAspectRatio="xMidYMid meet" version="1.0">
 <metadata>Created by potrace 1.16, written by Peter Selinger 2001-2019</metadata>

 <g>
  <title>Layer 1</title>
  <g id="svg_1" fill="#000000" transform="translate(0 434) scale(0.1 -0.1)">
   <path fill="#000000" id="svg_2" d="m9157,4329c-514,-33 -1017,-259 -1377,-619c-266,-265 -442,-556 -551,-907c-71,-231 -93,-412 -86,-696c5,-213 17,-306 58,-471c11,-43 19,-79 17,-80c-2,-2 -38,-21 -80,-44c-150,-79 -325,-208 -473,-346c-120,-113 -316,-228 -485,-286c-191,-64 -474,-88 -665,-56c-363,62 -695,278 -900,586c-302,455 -302,1066 0,1520c199,298 485,488 860,571c129,29 389,37 511,15c236,-41 459,-149 654,-317l72,-62l281,282l282,282l-70,66c-310,291 -735,493 -1152,548c-133,17 -382,20 -521,4c-755,-81 -1388,-517 -1720,-1184c-142,-286 -205,-538 -227,-909c-8,-148 25,-439 70,-606c17,-65 18,-70 6,-70c-16,0 -198,-107 -278,-163c-71,-50 -136,-104 -334,-275c-165,-142 -401,-246 -649,-287c-121,-19 -332,-19 -443,0c-521,91 -947,487 -1078,1003c-29,113 -54,337 -45,403c3,19 8,66 11,104c8,93 55,271 97,370c88,207 232,397 403,530c267,208 577,305 938,293c296,-10 549,-112 795,-321l84,-70l281,282l282,282l-58,54c-316,298 -730,498 -1154,559c-129,18 -386,21 -531,5c-785,-85 -1445,-558 -1757,-1258c-132,-296 -187,-557 -187,-891c-1,-216 14,-338 62,-531c188,-749 769,-1347 1505,-1552c227,-63 291,-71 570,-72c216,0 267,3 375,23c442,80 806,260 1139,565c98,90 198,163 289,213l54,28l46,-54c80,-97 264,-273 362,-346c316,-237 669,-380 1054,-425c146,-17 461,-7 616,21c428,76 798,259 1120,555c109,100 186,157 284,211l69,37l55,-64c356,-415 828,-677 1357,-754c130,-19 431,-22 555,-6c408,54 770,203 1080,442c182,141 386,369 512,571c121,195 233,476 277,694c21,106 39,253 45,372l3,72l-811,0l-811,0l-70,-128c-38,-70 -118,-214 -177,-321c-59,-107 -108,-196 -108,-197c0,-2 228,-5 506,-6l506,-3l-63,-95c-71,-106 -226,-268 -334,-348c-138,-103 -367,-201 -555,-239c-122,-25 -404,-24 -520,1c-535,116 -942,521 -1062,1057c-30,137 -33,407 -5,539c72,338 252,626 516,826c105,80 313,183 436,218c198,55 454,71 631,41c237,-42 483,-166 672,-339l43,-40l282,283l282,282l-73,70c-339,320 -833,534 -1277,555c-60,2 -130,6 -155,7c-25,2 -98,0 -163,-4z"/>
   <path fill="#000000" id="svg_3" d="m12070,3521c-196,-36 -318,-218 -289,-429c17,-125 105,-239 217,-283c75,-29 213,-32 288,-6c48,17 134,79 134,97c0,4 -21,21 -47,38l-48,31l-25,-24c-78,-75 -217,-73 -302,3c-71,64 -101,168 -78,276c34,165 217,247 358,159l50,-31l42,37l43,37l-38,32c-22,17 -59,38 -84,47c-56,19 -161,27 -221,16z"/>
   <path fill="#000000" id="svg_4" d="m12740,3516c-146,-31 -251,-148 -270,-300c-15,-127 24,-255 102,-329c186,-175 505,-124 614,99c37,75 46,213 20,296c-58,182 -253,280 -466,234zm184,-108c25,-8 59,-31 88,-59c163,-163 55,-459 -168,-459c-68,0 -113,19 -164,68c-107,104 -108,285 0,393c66,66 148,85 244,57z"/>
   <path fill="#000000" id="svg_5" d="m15225,3517c-155,-41 -253,-147 -274,-299c-30,-220 92,-390 309,-430c76,-14 230,2 296,32l44,19l0,180l0,181l-135,0l-135,0l0,-50l0,-50l75,0l75,0l0,-90c0,-111 -5,-115 -135,-115c-73,0 -98,4 -131,22c-108,58 -158,193 -119,323c34,112 123,180 235,180c55,0 127,-25 162,-56c15,-14 20,-12 57,28c23,23 41,46 41,50c0,10 -63,46 -111,64c-60,21 -192,27 -254,11z"/>
   <path fill="#000000" id="svg_6" d="m13350,3155l0,-355l210,0l210,0l0,55l0,55l-150,0l-150,0l0,300l0,300l-60,0l-60,0l0,-355z"/>
   <path fill="#000000" id="svg_7" d="m13860,3155l0,-355l210,0l210,0l0,55l0,55l-150,0l-150,0l0,300l0,300l-60,0l-60,0l0,-355z"/>
   <path fill="#000000" id="svg_8" d="m14370,3155l0,-355l240,0l240,0l0,55l0,55l-180,0l-180,0l0,100l0,100l165,0l165,0l0,50l0,50l-165,0l-165,0l0,100l0,100l173,2l172,3l0,45l0,45l-232,3l-233,2l0,-355z"/>
   <path fill="#000000" id="svg_9" d="m15750,3155l0,-355l60,0l60,0l0,355l0,355l-60,0l-60,0l0,-355z"/>
   <path fill="#000000" id="svg_10" d="m16236,3478c-29,-70 -108,-252 -195,-452c-50,-116 -91,-213 -91,-218c0,-4 30,-8 68,-8l67,0l30,85l29,85l156,0l157,0l32,-85l32,-85l71,0c58,0 69,3 64,15c-3,8 -71,168 -152,355l-147,340l-53,0c-51,0 -54,-2 -68,-32zm145,-330l28,-78l-109,0l-109,0l28,78c38,100 71,183 78,196c6,9 16,-14 84,-196z"/>
   <path fill="#000000" id="svg_11" d="m16604,3496c-3,-8 -4,-29 -2,-48l3,-33l108,-3l107,-3l0,-304l0,-305l65,0l65,0l0,305l0,305l105,0l105,0l0,50l0,50l-275,0c-228,0 -277,-2 -281,-14z"/>
   <path fill="#000000" id="svg_12" d="m17250,3155l0,-355l240,0l240,0l0,55l0,55l-180,0l-180,0l0,100l0,100l165,0l165,0l0,50l0,50l-165,0l-165,0l0,100l0,100l176,0l175,0l-3,48l-3,47l-232,3l-233,2l0,-355z"/>
   <path fill="#000000" id="svg_13" d="m12060,2446c-85,-20 -128,-43 -179,-94c-81,-81 -116,-192 -100,-320c14,-119 90,-232 190,-280c93,-45 221,-51 321,-16c41,14 128,78 128,93c0,5 -21,22 -47,39l-48,31l-25,-24c-57,-55 -168,-71 -245,-36c-50,22 -108,86 -126,137c-19,53 -16,180 4,225c64,144 255,198 359,101l27,-25l46,38l46,37l-27,29c-58,61 -213,92 -324,65z"/>
   <path fill="#000000" id="svg_14" d="m12753,2450c-154,-33 -261,-145 -281,-297c-25,-184 51,-333 206,-406c61,-28 76,-31 162,-31c76,0 107,5 155,24c75,29 156,104 192,179c26,51 28,66 28,171c0,102 -3,121 -25,165c-36,74 -114,148 -184,174c-67,25 -188,35 -253,21zm171,-112c60,-18 131,-92 150,-159c59,-199 -69,-376 -258,-356c-160,16 -252,182 -200,358c19,63 92,142 146,158c47,13 114,13 162,-1z"/>
   <path fill="#000000" id="svg_15" d="m14287,2450c-120,-30 -177,-97 -177,-208c0,-104 51,-156 200,-207c91,-31 128,-57 135,-98c23,-123 -139,-171 -258,-77l-28,23l-40,-39l-39,-38l21,-22c41,-44 116,-68 214,-68c82,-1 95,2 145,29c78,43 111,100 111,190c0,110 -45,162 -181,206c-99,33 -136,55 -150,88c-38,93 86,164 194,111c25,-12 46,-27 46,-33c0,-6 20,9 45,33c51,50 49,57 -26,89c-57,25 -157,35 -212,21z"/>
   <path fill="#000000" id="svg_16" d="m17715,2447c-151,-39 -253,-149 -273,-296c-43,-313 215,-507 553,-417c101,27 95,12 95,216l0,180l-135,0l-135,0l0,-50l0,-50l75,0l75,0l0,-94l0,-94l-51,-12c-108,-26 -227,4 -283,71c-45,53 -59,97 -60,184c0,64 5,90 23,128c42,85 124,137 218,137c54,0 130,-24 157,-49l22,-21l45,46l44,45l-23,19c-66,54 -243,83 -347,57z"/>
   <path fill="#000000" id="svg_17" d="m13350,2085l0,-355l60,0l60,0l0,272c0,233 2,270 14,258c12,-13 101,-155 275,-442l54,-88l78,0l79,0l0,355l0,355l-60,0l-60,0l-1,-267c0,-255 -1,-267 -17,-244c-18,25 -111,174 -239,384l-78,127l-82,0l-83,0l0,-355z"/>
   <path fill="#000000" id="svg_18" d="m14692,2178c3,-241 5,-267 24,-308c94,-203 413,-212 514,-14c25,48 25,54 28,317l3,267l-61,0l-60,0l0,-232c0,-137 -5,-250 -11,-273c-21,-78 -82,-120 -166,-113c-62,5 -100,29 -125,79c-16,30 -18,66 -18,287l0,252l-66,0l-66,0l4,-262z"/>
   <path fill="#000000" id="svg_19" d="m15420,2085l0,-355l210,0l210,0l0,55l0,55l-150,0l-150,0l0,300l0,300l-60,0l-60,0l0,-355z"/>
   <path fill="#000000" id="svg_20" d="m15766,2424c-3,-9 -6,-31 -6,-50l0,-34l110,0l110,0l0,-305l0,-305l65,0l65,0l0,305l0,305l105,0l105,0l0,50l0,50l-274,0c-240,0 -275,-2 -280,-16z"/>
   <path fill="#000000" id="svg_21" d="m16410,2085l0,-355l60,0l60,0l0,355l0,355l-60,0l-60,0l0,-355z"/>
   <path fill="#000000" id="svg_22" d="m16690,2085l0,-355l60,0l60,0l0,270c0,149 3,270 8,270c4,0 22,-26 41,-58c19,-31 57,-95 86,-142c29,-47 87,-142 130,-212l78,-128l78,0l79,0l0,355l0,355l-60,0l-60,0l-2,-267l-3,-268l-124,200c-68,110 -143,230 -165,267l-41,67l-82,1l-83,0l0,-355z"/>
   <path fill="#000000" id="svg_23" d="m12060,1377c-194,-45 -304,-208 -279,-415c26,-221 218,-348 474,-314c47,6 105,20 130,31l45,20l0,180l0,181l-135,0l-135,0l0,-50l0,-50l75,0l75,0l0,-90c0,-107 -3,-109 -119,-117c-63,-5 -85,-2 -122,14c-107,48 -153,122 -153,248c0,122 46,200 144,244c77,35 173,26 248,-25l34,-22l41,45l42,45l-23,19c-66,53 -235,81 -342,56z"/>
   <path fill="#000000" id="svg_24" d="m13470,1380c-117,-25 -220,-111 -260,-218c-30,-79 -30,-205 -1,-282c53,-141 159,-220 314,-236c164,-17 315,64 385,206c35,71 43,210 17,292c-33,104 -116,189 -219,223c-62,20 -175,27 -236,15zm165,-111c122,-31 196,-175 165,-323c-29,-142 -170,-225 -313,-185c-59,16 -132,92 -151,158c-46,158 21,307 159,352c32,11 93,10 140,-2z"/>
   <path fill="#000000" id="svg_25" d="m12590,1016l0,-356l60,0l60,0l0,150l0,150l49,0l50,0l60,-112c33,-62 69,-129 79,-148c19,-35 20,-35 97,-38c42,-2 75,1 72,5c-97,159 -177,295 -176,301c0,4 23,18 52,32c74,37 99,82 95,176c-4,86 -31,129 -105,165c-43,21 -65,24 -220,27l-173,4l0,-356zm351,216c50,-56 33,-129 -37,-158c-19,-8 -68,-14 -114,-14l-80,0l0,106l0,106l101,-4c99,-4 102,-4 130,-36z"/>
   <path fill="#000000" id="svg_26" d="m14062,1108c3,-294 8,-316 79,-387c56,-55 112,-76 204,-75c100,0 170,28 221,87c57,68 64,109 64,389l0,248l-60,0l-60,0l0,-231c0,-255 -7,-302 -52,-348c-49,-50 -155,-55 -213,-9c-51,40 -55,66 -55,338l0,250l-66,0l-65,0l3,-262z"/>
   <path fill="#000000" id="svg_27" d="m14780,1016l0,-356l60,0l59,0l3,148l3,147l103,7c134,9 198,36 236,101c47,80 35,187 -26,244c-50,47 -93,56 -270,61l-168,4l0,-356zm314,238c80,-39 74,-145 -10,-180c-19,-8 -67,-14 -109,-14l-75,0l0,105l0,105l80,0c53,0 91,-5 114,-16z"/>
  </g>
 </g>
</svg>